Maniac.ufo
<glyph name="exclam" format="2">
  <advance width="289"/>
  <unicode hex="0021"/>
  <outline>
    <contour>
      <point x="27" y="233" type="line"/>
      <point x="27" y="0" type="line"/>
      <point x="259" y="0" type="line"/>
      <point x="259" y="233" type="line"/>
    </contour>
    <contour>
      <point x="27" y="697" type="line"/>
      <point x="27" y="279" type="line"/>
      <point x="259" y="279" type="line"/>
      <point x="259" y="697" type="line"/>
    </contour>
  </outline>
</glyph>
<glyph name="parenleft" format="2">
  <advance width="289"/>
  <unicode hex="0028"/>
  <outline>
    <contour>
      <point x="260" y="-46" type="line"/>
      <point x="260" y="280" type="line"/>
      <point x="260" y="419" type="line"/>
      <point x="260" y="744" type="line"/>
      <point x="539" y="744" type="line"/>
      <point x="539" y="977" type="line"/>
      <point x="27" y="977" type="line"/>
      <point x="27" y="698" type="line"/>
      <point x="27" y="419" type="line"/>
      <point x="27" y="280" type="line"/>
      <point x="27" y="1" type="line"/>
      <point x="27" y="-278" type="line"/>
      <point x="539" y="-278" type="line"/>
      <point x="539" y="-46" type="line"/>
    </contour>
  </outline>
</glyph>
<glyph name="parenright" format="2">
  <advance width="280"/>
  <unicode hex="0029"/>
  <outline>
    <contour>
      <point x="259" y="418" type="line"/>
      <point x="259" y="975" type="line"/>
      <point x="-252" y="975" type="line"/>
      <point x="-252" y="743" type="line"/>
      <point x="27" y="743" type="line"/>
      <point x="27" y="418" type="line"/>
      <point x="27" y="278" type="line"/>
      <point x="27" y="-47" type="line"/>
      <point x="-252" y="-47" type="line"/>
      <point x="-252" y="-279" type="line"/>
      <point x="259" y="-279" type="line"/>
      <point x="259" y="278" type="line"/>
    </contour>
  </outline>
</glyph>
<glyph name="comma" format="2">
  <advance width="289"/>
  <unicode hex="002C"/>
  <outline>
    <contour>
      <point x="259" y="232" type="line"/>
      <point x="27" y="232" type="line"/>
      <point x="27" y="0" type="line"/>
      <point x="119" y="0" type="line"/>
      <point x="119" y="-47" type="line"/>
      <point x="259" y="-47" type="line"/>
      <point x="259" y="93" type="line"/>
    </contour>
  </outline>
</glyph>
<glyph name="hyphen" format="2">
  <advance width="398"/>
  <unicode hex="002D"/>
  <outline>
    <contour>
      <point x="28" y="417" type="line"/>
      <point x="28" y="184" type="line"/>
      <point x="374" y="184" type="line"/>
      <point x="374" y="417" type="line"/>
    </contour>
  </outline>
</glyph>
<glyph name="period" format="2">
  <advance width="289"/>
  <unicode hex="002E"/>
  <outline>
    <contour>
      <point x="27" y="233" type="line"/>
      <point x="27" y="0" type="line"/>
      <point x="260" y="0" type="line"/>
      <point x="260" y="233" type="line"/>
    </contour>
  </outline>
</glyph>
<glyph name="zero" format="2">
  <advance width="565"/>
  <unicode hex="0030"/>
  <outline>
    <contour>
      <point x="260" y="232" type="line"/>
      <point x="260" y="418" type="line"/>
      <point x="260" y="465" type="line"/>
      <point x="306" y="465" type="line"/>
      <point x="306" y="418" type="line"/>
      <point x="306" y="372" type="line"/>
      <point x="306" y="232" type="line"/>
    </contour>
    <contour>
      <point x="27" y="697" type="line"/>
      <point x="27" y="465" type="line"/>
      <point x="27" y="418" type="line"/>
      <point x="27" y="0" type="line"/>
      <point x="260" y="0" type="line"/>
      <point x="306" y="0" type="line"/>
      <point x="399" y="0" type="line"/>
      <point x="538" y="0" type="line"/>
      <point x="538" y="697" type="line"/>
    </contour>
  </outline>
</glyph>
<glyph name="two" format="2">
  <advance width="569"/>
  <unicode hex="0032"/>
  <outline>
    <contour>
      <point x="259" y="233" type="line"/>
      <point x="259" y="279" type="line"/>
      <point x="306" y="279" type="line"/>
      <point x="538" y="279" type="line"/>
      <point x="538" y="697" type="line"/>
      <point x="27" y="697" type="line"/>
      <point x="27" y="465" type="line"/>
      <point x="306" y="465" type="line"/>
      <point x="306" y="419" type="line"/>
      <point x="27" y="419" type="line"/>
      <point x="27" y="279" type="line"/>
      <point x="27" y="233" type="line"/>
      <point x="27" y="0" type="line"/>
      <point x="538" y="0" type="line"/>
      <point x="538" y="233" type="line"/>
      <point x="306" y="233" type="line"/>
    </contour>
  </outline>
</glyph>
<glyph name="three" format="2">
  <advance width="569"/>
  <unicode hex="0033"/>
  <outline>
    <contour>
      <point x="27" y="697" type="line"/>
      <point x="27" y="465" type="line"/>
      <point x="306" y="465" type="line"/>
      <point x="306" y="418" type="line"/>
      <point x="27" y="418" type="line"/>
      <point x="27" y="279" type="line"/>
      <point x="306" y="279" type="line"/>
      <point x="306" y="232" type="line"/>
      <point x="27" y="232" type="line"/>
      <point x="27" y="0" type="line"/>
      <point x="538" y="0" type="line"/>
      <point x="538" y="697" type="line"/>
    </contour>
  </outline>
</glyph>
<glyph name="four" format="2">
  <advance width="569"/>
  <unicode hex="0034"/>
  <outline>
    <contour>
      <point x="307" y="697" type="line"/>
      <point x="307" y="418" type="line"/>
      <point x="261" y="418" type="line"/>
      <point x="261" y="697" type="line"/>
      <point x="28" y="697" type="line"/>
      <point x="28" y="233" type="line"/>
      <point x="307" y="233" type="line"/>
      <point x="307" y="0" type="line"/>
      <point x="539" y="0" type="line"/>
      <point x="539" y="697" type="line"/>
    </contour>
  </outline>
</glyph>
<glyph name="five" format="2">
  <advance width="569"/>
  <unicode hex="0035"/>
  <outline>
    <contour>
      <point x="538" y="279" type="line"/>
      <point x="538" y="419" type="line"/>
      <point x="259" y="419" type="line"/>
      <point x="259" y="465" type="line"/>
      <point x="538" y="465" type="line"/>
      <point x="538" y="697" type="line"/>
      <point x="27" y="697" type="line"/>
      <point x="27" y="279" type="line"/>
      <point x="259" y="279" type="line"/>
      <point x="306" y="279" type="line"/>
      <point x="306" y="233" type="line"/>
      <point x="259" y="233" type="line"/>
      <point x="27" y="233" type="line"/>
      <point x="27" y="0" type="line"/>
      <point x="538" y="0" type="line"/>
      <point x="538" y="233" type="line"/>
    </contour>
  </outline>
</glyph>
<glyph name="six" format="2">
  <advance width="569"/>
  <unicode hex="0036"/>
  <outline>
    <contour>
      <point x="538" y="279" type="line"/>
      <point x="538" y="418" type="line"/>
      <point x="259" y="418" type="line"/>
      <point x="259" y="464" type="line"/>
      <point x="538" y="464" type="line"/>
      <point x="538" y="697" type="line"/>
      <point x="27" y="697" type="line"/>
      <point x="27" y="279" type="line"/>
      <point x="27" y="232" type="line"/>
      <point x="27" y="0" type="line"/>
      <point x="538" y="0" type="line"/>
      <point x="538" y="232" type="line"/>
    </contour>
    <contour>
      <point x="259" y="232" type="line"/>
      <point x="259" y="279" type="line"/>
      <point x="306" y="279" type="line"/>
      <point x="306" y="232" type="line"/>
    </contour>
  </outline>
</glyph>
<glyph name="seven" format="2">
  <advance width="516"/>
  <unicode hex="0037"/>
  <outline>
    <contour>
      <point x="30" y="697" type="line"/>
      <point x="30" y="464" type="line"/>
      <point x="253" y="464" type="line"/>
      <point x="253" y="0" type="line"/>
      <point x="485" y="0" type="line"/>
      <point x="485" y="697" type="line"/>
    </contour>
  </outline>
</glyph>
<glyph name="eight" format="2">
  <advance width="569"/>
  <unicode hex="0038"/>
  <outline>
    <contour>
      <point x="260" y="232" type="line"/>
      <point x="260" y="278" type="line"/>
      <point x="306" y="278" type="line"/>
      <point x="306" y="232" type="line"/>
    </contour>
    <contour>
      <point x="539" y="418" type="line"/>
      <point x="539" y="464" type="line"/>
      <point x="539" y="697" type="line"/>
      <point x="27" y="697" type="line"/>
      <point x="27" y="278" type="line"/>
      <point x="27" y="232" type="line"/>
      <point x="27" y="0" type="line"/>
      <point x="539" y="0" type="line"/>
      <point x="539" y="232" type="line"/>
      <point x="539" y="278" type="line"/>
    </contour>
    <contour>
      <point x="260" y="418" type="line"/>
      <point x="260" y="464" type="line"/>
      <point x="306" y="464" type="line"/>
      <point x="306" y="418" type="line"/>
    </contour>
  </outline>
</glyph>
<glyph name="nine" format="2">
  <advance width="569"/>
  <unicode hex="0039"/>
  <outline>
    <contour>
      <point x="259" y="419" type="line"/>
      <point x="259" y="465" type="line"/>
      <point x="305" y="465" type="line"/>
      <point x="305" y="419" type="line"/>
    </contour>
    <contour>
      <point x="538" y="697" type="line"/>
      <point x="27" y="697" type="line"/>
      <point x="27" y="279" type="line"/>
      <point x="305" y="279" type="line"/>
      <point x="305" y="233" type="line"/>
      <point x="27" y="233" type="line"/>
      <point x="27" y="0" type="line"/>
      <point x="538" y="0" type="line"/>
    </contour>
  </outline>
</glyph>
<glyph name="colon" format="2">
  <advance width="289"/>
  <unicode hex="003A"/>
  <outline>
    <contour>
      <point x="27" y="233" type="line"/>
      <point x="27" y="0" type="line"/>
      <point x="260" y="0" type="line"/>
      <point x="260" y="233" type="line"/>
    </contour>
    <contour>
      <point x="27" y="694" type="line"/>
      <point x="27" y="461" type="line"/>
      <point x="260" y="461" type="line"/>
      <point x="260" y="694" type="line"/>
    </contour>
  </outline>
</glyph>
<glyph name="semicolon" format="2">
  <advance width="289"/>
  <unicode hex="003B"/>
  <outline>
    <contour>
      <point x="27" y="694" type="line"/>
      <point x="27" y="461" type="line"/>
      <point x="260" y="461" type="line"/>
      <point x="260" y="694" type="line"/>
    </contour>
    <contour>
      <point x="259" y="232" type="line" name=".hr01"/>
      <point x="27" y="232" type="line" name=".hr02"/>
      <point x="27" y="0" type="line"/>
      <point x="119" y="0" type="line" name=".hr03"/>
      <point x="119" y="-47" type="line"/>
      <point x="259" y="-47" type="line"/>
      <point x="259" y="93" type="line"/>
    </contour>
  </outline>
</glyph>
<glyph name="question" format="2">
  <advance width="569"/>
  <unicode hex="003F"/>
  <outline>
    <contour>
      <point x="167" y="232" type="line"/>
      <point x="167" y="0" type="line"/>
      <point x="399" y="0" type="line"/>
      <point x="399" y="232" type="line"/>
    </contour>
    <contour>
      <point x="27" y="697" type="line"/>
      <point x="27" y="465" type="line"/>
      <point x="306" y="465" type="line" name=".hr01"/>
      <point x="306" y="418" type="line"/>
      <point x="167" y="418" type="line" name=".hr02"/>
      <point x="167" y="279" type="line"/>
      <point x="399" y="279" type="line"/>
      <point x="399" y="324" type="line"/>
      <point x="538" y="324" type="line" name=".hr03"/>
      <point x="538" y="697" type="line"/>
    </contour>
  </outline>
</glyph>
<glyph name="A" format="2">
  <advance width="565"/>
  <unicode hex="0041"/>
  <outline>
    <contour>
      <point x="27" y="697" type="line"/>
      <point x="27" y="464" type="line"/>
      <point x="260" y="464" type="line"/>
      <point x="306" y="464" type="line"/>
      <point x="306" y="418" type="line"/>
      <point x="306" y="325" type="line"/>
      <point x="260" y="325" type="line"/>
      <point x="260" y="418" type="line"/>
      <point x="27" y="418" type="line"/>
      <point x="27" y="0" type="line"/>
      <point x="260" y="0" type="line"/>
      <point x="260" y="186" type="line"/>
      <point x="306" y="186" type="line"/>
      <point x="306" y="0" type="line"/>
      <point x="539" y="0" type="line"/>
      <point x="539" y="697" type="line"/>
    </contour>
    <contour>
      <point x="27" y="697" type="line"/>
      <point x="27" y="464" type="line"/>
      <point x="260" y="464" type="line"/>
      <point x="306" y="464" type="line"/>
      <point x="306" y="418" type="line"/>
      <point x="306" y="325" type="line"/>
      <point x="260" y="325" type="line"/>
      <point x="260" y="418" type="line"/>
      <point x="27" y="418" type="line"/>
      <point x="27" y="0" type="line"/>
      <point x="260" y="0" type="line"/>
      <point x="260" y="186" type="line"/>
      <point x="306" y="186" type="line"/>
      <point x="306" y="0" type="line"/>
      <point x="539" y="0" type="line"/>
      <point x="539" y="697" type="line"/>
    </contour>
  </outline>
</glyph>
<glyph name="B" format="2">
  <advance width="565"/>
  <unicode hex="0042"/>
  <outline>
    <contour>
      <point x="27" y="697" type="line"/>
      <point x="27" y="464" type="line"/>
      <point x="259" y="464" type="line"/>
      <point x="306" y="464" type="line"/>
      <point x="306" y="418" type="line"/>
      <point x="306" y="371" type="line"/>
      <point x="259" y="371" type="line"/>
      <point x="259" y="418" type="line"/>
      <point x="27" y="418" type="line"/>
      <point x="27" y="0" type="line"/>
      <point x="259" y="0" type="line"/>
      <point x="306" y="0" type="line"/>
      <point x="538" y="0" type="line"/>
      <point x="538" y="697" type="line"/>
    </contour>
    <contour>
      <point x="259" y="186" type="line"/>
      <point x="259" y="232" type="line"/>
      <point x="306" y="232" type="line"/>
      <point x="306" y="186" type="line"/>
    </contour>
  </outline>
</glyph>
<glyph name="C" format="2">
  <advance width="565"/>
  <unicode hex="0043"/>
  <outline>
    <contour>
      <point x="259" y="232" type="line"/>
      <point x="259" y="464" type="line"/>
      <point x="538" y="464" type="line"/>
      <point x="538" y="697" type="line"/>
      <point x="27" y="697" type="line"/>
      <point x="27" y="0" type="line"/>
      <point x="538" y="0" type="line"/>
      <point x="538" y="232" type="line"/>
    </contour>
  </outline>
</glyph>
<glyph name="D" format="2">
  <advance width="565"/>
  <unicode hex="0044"/>
  <outline>
    <contour>
      <point x="259" y="232" type="line"/>
      <point x="259" y="418" type="line"/>
      <point x="27" y="418" type="line"/>
      <point x="27" y="0" type="line"/>
      <point x="259" y="0" type="line"/>
      <point x="306" y="0" type="line"/>
      <point x="399" y="0" type="line"/>
      <point x="538" y="0" type="line"/>
      <point x="538" y="697" type="line"/>
      <point x="27" y="697" type="line"/>
      <point x="27" y="464" type="line"/>
      <point x="259" y="464" type="line"/>
      <point x="306" y="464" type="line"/>
      <point x="306" y="418" type="line"/>
      <point x="306" y="371" type="line"/>
      <point x="306" y="232" type="line"/>
    </contour>
  </outline>
</glyph>
<glyph name="I" format="2">
  <advance width="287"/>
  <unicode hex="0049"/>
  <outline>
    <contour>
      <point x="74" y="698" type="line"/>
      <point x="27" y="698" type="line"/>
      <point x="27" y="0" type="line"/>
      <point x="260" y="0" type="line"/>
      <point x="260" y="698" type="line"/>
    </contour>
  </outline>
</glyph>
<glyph name="L" format="2">
  <advance width="518"/>
  <unicode hex="004C"/>
  <outline>
    <contour>
      <point x="259" y="232" type="line"/>
      <point x="259" y="697" type="line"/>
      <point x="27" y="697" type="line"/>
      <point x="27" y="0" type="line"/>
      <point x="492" y="0" type="line"/>
      <point x="492" y="232" type="line"/>
    </contour>
  </outline>
</glyph>
<glyph name="M" format="2">
  <advance width="842"/>
  <unicode hex="004D"/>
  <outline>
    <contour>
      <point x="538" y="698" type="line"/>
      <point x="306" y="698" type="line"/>
      <point x="260" y="698" type="line"/>
      <point x="27" y="698" type="line"/>
      <point x="27" y="0" type="line"/>
      <point x="260" y="0" type="line"/>
      <point x="260" y="465" type="line"/>
      <point x="306" y="465" type="line"/>
      <point x="306" y="0" type="line"/>
      <point x="538" y="0" type="line"/>
      <point x="538" y="465" type="line"/>
      <point x="585" y="465" type="line"/>
      <point x="585" y="0" type="line"/>
      <point x="817" y="0" type="line"/>
      <point x="817" y="465" type="line"/>
      <point x="817" y="698" type="line"/>
      <point x="585" y="698" type="line"/>
    </contour>
  </outline>
</glyph>
<glyph name="N" format="2">
  <advance width="569"/>
  <unicode hex="004E"/>
  <outline>
    <contour>
      <point x="259" y="133" type="line"/>
      <point x="259" y="175" type="line"/>
      <point x="352" y="0" type="line"/>
      <point x="399" y="0" type="line"/>
      <point x="538" y="0" type="line"/>
      <point x="538" y="698" type="line"/>
      <point x="306" y="698" type="line"/>
      <point x="306" y="581" type="line"/>
      <point x="306" y="564" type="line"/>
      <point x="306" y="523" type="line"/>
      <point x="213" y="698" type="line"/>
      <point x="166" y="698" type="line"/>
      <point x="27" y="698" type="line"/>
      <point x="27" y="465" type="line"/>
      <point x="27" y="419" type="line"/>
      <point x="27" y="0" type="line"/>
      <point x="259" y="0" type="line"/>
      <point x="259" y="116" type="line"/>
    </contour>
  </outline>
</glyph>
<glyph name="P" format="2">
  <advance width="565"/>
  <unicode hex="0050"/>
  <outline>
    <contour>
      <point x="27" y="697" type="line"/>
      <point x="27" y="465" type="line"/>
      <point x="259" y="465" type="line"/>
      <point x="306" y="465" type="line"/>
      <point x="306" y="419" type="line"/>
      <point x="306" y="326" type="line"/>
      <point x="259" y="326" type="line"/>
      <point x="259" y="419" type="line"/>
      <point x="27" y="419" type="line"/>
      <point x="27" y="0" type="line"/>
      <point x="259" y="0" type="line"/>
      <point x="259" y="186" type="line"/>
      <point x="492" y="186" type="line"/>
      <point x="538" y="186" type="line"/>
      <point x="538" y="697" type="line"/>
    </contour>
  </outline>
</glyph>
<glyph name="R" format="2">
  <advance width="565"/>
  <unicode hex="0052"/>
  <outline>
    <contour>
      <point x="27" y="697" type="line"/>
      <point x="27" y="465" type="line"/>
      <point x="259" y="465" type="line"/>
      <point x="306" y="465" type="line"/>
      <point x="306" y="419" type="line"/>
      <point x="306" y="326" type="line"/>
      <point x="259" y="326" type="line"/>
      <point x="259" y="419" type="line"/>
      <point x="27" y="419" type="line"/>
      <point x="27" y="0" type="line"/>
      <point x="259" y="0" type="line"/>
      <point x="259" y="186" type="line"/>
      <point x="306" y="0" type="line"/>
      <point x="538" y="0" type="line"/>
      <point x="492" y="186" type="line"/>
      <point x="538" y="186" type="line"/>
      <point x="538" y="697" type="line"/>
    </contour>
  </outline>
</glyph>
<glyph name="V" format="2">
  <advance width="565"/>
  <unicode hex="0056"/>
  <outline>
    <contour>
      <point x="306" y="697" type="line"/>
      <point x="306" y="464" type="line"/>
      <point x="306" y="418" type="line"/>
      <point x="306" y="325" type="line"/>
      <point x="259" y="217" type="line"/>
      <point x="259" y="325" type="line"/>
      <point x="259" y="418" type="line"/>
      <point x="259" y="697" type="line"/>
      <point x="27" y="697" type="line"/>
      <point x="27" y="418" type="line"/>
      <point x="27" y="0" type="line"/>
      <point x="259" y="0" type="line"/>
      <point x="399" y="0" type="line"/>
      <point x="538" y="325" type="line"/>
      <point x="538" y="697" type="line"/>
    </contour>
  </outline>
</glyph>
<glyph name="W" format="2">
  <advance width="849"/>
  <unicode hex="0057"/>
  <outline>
    <contour>
      <point x="538" y="233" type="line"/>
      <point x="538" y="697" type="line"/>
      <point x="352" y="697" type="line"/>
      <point x="306" y="697" type="line"/>
      <point x="306" y="233" type="line"/>
      <point x="259" y="233" type="line"/>
      <point x="259" y="697" type="line"/>
      <point x="73" y="697" type="line"/>
      <point x="27" y="697" type="line"/>
      <point x="27" y="0" type="line"/>
      <point x="259" y="0" type="line"/>
      <point x="306" y="0" type="line"/>
      <point x="538" y="0" type="line"/>
      <point x="584" y="0" type="line"/>
      <point x="817" y="0" type="line"/>
      <point x="817" y="697" type="line"/>
      <point x="631" y="697" type="line"/>
      <point x="584" y="697" type="line"/>
      <point x="584" y="233" type="line"/>
    </contour>
  </outline>
</glyph>
<glyph name="X" format="2">
  <advance width="584"/>
  <unicode hex="0058"/>
  <outline>
    <contour>
      <point x="570" y="697" type="line"/>
      <point x="316" y="697" type="line"/>
      <point x="290" y="639" type="line"/>
      <point x="264" y="697" type="line"/>
      <point x="10" y="697" type="line"/>
      <point x="163" y="354" type="line"/>
      <point x="5" y="0" type="line"/>
      <point x="260" y="0" type="line"/>
      <point x="290" y="68" type="line"/>
      <point x="320" y="0" type="line"/>
      <point x="575" y="0" type="line"/>
      <point x="417" y="354" type="line"/>
    </contour>
  </outline>
</glyph>
<glyph name="a" format="2">
  <advance width="565"/>
  <unicode hex="0061"/>
  <outline>
    <contour>
      <point x="27" y="697" type="line"/>
      <point x="27" y="464" type="line"/>
      <point x="260" y="464" type="line"/>
      <point x="306" y="464" type="line"/>
      <point x="306" y="418" type="line"/>
      <point x="306" y="325" type="line"/>
      <point x="260" y="325" type="line"/>
      <point x="260" y="418" type="line"/>
      <point x="27" y="418" type="line"/>
      <point x="27" y="0" type="line"/>
      <point x="260" y="0" type="line"/>
      <point x="260" y="186" type="line"/>
      <point x="306" y="186" type="line"/>
      <point x="306" y="0" type="line"/>
      <point x="539" y="0" type="line"/>
      <point x="539" y="697" type="line"/>
    </contour>
  </outline>
</glyph>
<glyph name="f" format="2">
  <advance width="565"/>
  <unicode hex="0066"/>
  <outline>
    <contour>
      <point x="259" y="279" type="line"/>
      <point x="538" y="279" type="line"/>
      <point x="538" y="418" type="line"/>
      <point x="259" y="418" type="line"/>
      <point x="259" y="465" type="line"/>
      <point x="538" y="465" type="line"/>
      <point x="538" y="697" type="line"/>
      <point x="27" y="697" type="line"/>
      <point x="27" y="0" type="line"/>
      <point x="259" y="0" type="line"/>
    </contour>
  </outline>
</glyph>
<glyph name="g" format="2">
  <advance width="565"/>
  <unicode hex="0067"/>
  <outline>
    <contour>
      <point x="538" y="418" type="line"/>
      <point x="306" y="418" type="line"/>
      <point x="306" y="278" type="line"/>
      <point x="352" y="278" type="line"/>
      <point x="352" y="232" type="line"/>
      <point x="259" y="232" type="line"/>
      <point x="259" y="464" type="line"/>
      <point x="538" y="464" type="line"/>
      <point x="538" y="697" type="line"/>
      <point x="27" y="697" type="line"/>
      <point x="27" y="0" type="line"/>
      <point x="538" y="0" type="line"/>
      <point x="538" y="232" type="line"/>
    </contour>
  </outline>
</glyph>
<glyph name="j" format="2">
  <advance width="565"/>
  <unicode hex="006A"/>
  <outline>
    <contour>
      <point x="538" y="697" type="line"/>
      <point x="306" y="697" type="line"/>
      <point x="306" y="232" type="line"/>
      <point x="259" y="232" type="line"/>
      <point x="259" y="416" type="line"/>
      <point x="27" y="416" type="line"/>
      <point x="27" y="0" type="line"/>
      <point x="538" y="0" type="line"/>
      <point x="538" y="464" type="line"/>
    </contour>
  </outline>
</glyph>
<glyph name="k" format="2">
  <advance width="611"/>
  <unicode hex="006B"/>
  <outline>
    <contour>
      <point x="596" y="697" type="line"/>
      <point x="340" y="697" type="line"/>
      <point x="259" y="524" type="line"/>
      <point x="259" y="578" type="line"/>
      <point x="259" y="697" type="line"/>
      <point x="27" y="697" type="line"/>
      <point x="27" y="465" type="line"/>
      <point x="27" y="0" type="line"/>
      <point x="259" y="0" type="line"/>
      <point x="259" y="119" type="line"/>
      <point x="259" y="174" type="line"/>
      <point x="340" y="0" type="line"/>
      <point x="343" y="0" type="line"/>
      <point x="568" y="0" type="line"/>
      <point x="596" y="0" type="line"/>
      <point x="434" y="349" type="line"/>
    </contour>
  </outline>
</glyph>
<glyph name="q" format="2">
  <advance width="565"/>
  <unicode hex="0071"/>
  <outline>
    <contour>
      <point x="260" y="233" type="line"/>
      <point x="260" y="418" type="line"/>
      <point x="260" y="465" type="line"/>
      <point x="306" y="465" type="line"/>
      <point x="306" y="418" type="line"/>
      <point x="306" y="372" type="line"/>
      <point x="306" y="233" type="line"/>
    </contour>
    <contour>
      <point x="538" y="0" type="line" name=".hr01"/>
      <point x="538" y="697" type="line"/>
      <point x="27" y="697" type="line"/>
      <point x="27" y="465" type="line"/>
      <point x="27" y="418" type="line"/>
      <point x="27" y="0" type="line"/>
      <point x="188" y="0" type="line"/>
      <point x="230" y="-64" type="line" name=".hr02"/>
      <point x="515" y="-64" type="line"/>
      <point x="473" y="0" type="line" name=".hr03"/>
    </contour>
  </outline>
</glyph>
<glyph name="s" format="2">
  <advance width="565"/>
  <unicode hex="0073"/>
  <outline>
    <contour>
      <point x="538" y="279" type="line"/>
      <point x="538" y="418" type="line"/>
      <point x="259" y="418" type="line"/>
      <point x="259" y="464" type="line"/>
      <point x="538" y="464" type="line"/>
      <point x="538" y="697" type="line"/>
      <point x="27" y="697" type="line"/>
      <point x="27" y="279" type="line"/>
      <point x="259" y="279" type="line"/>
      <point x="305" y="279" type="line"/>
      <point x="305" y="232" type="line"/>
      <point x="259" y="232" type="line"/>
      <point x="27" y="232" type="line"/>
      <point x="27" y="0" type="line"/>
      <point x="538" y="0" type="line"/>
      <point x="538" y="232" type="line"/>
    </contour>
  </outline>
</glyph>
<glyph name="t" format="2">
  <advance width="540"/>
  <unicode hex="0074"/>
  <outline>
    <contour>
      <point x="12" y="697" type="line"/>
      <point x="12" y="465" type="line"/>
      <point x="151" y="465" type="line"/>
      <point x="151" y="0" type="line"/>
      <point x="384" y="0" type="line"/>
      <point x="384" y="465" type="line"/>
      <point x="523" y="465" type="line"/>
      <point x="523" y="697" type="line"/>
    </contour>
  </outline>
</glyph>
<glyph name="u" format="2">
  <advance width="565"/>
  <unicode hex="0075"/>
  <outline>
    <contour>
      <point x="259" y="278" type="line"/>
      <point x="259" y="418" type="line"/>
      <point x="259" y="697" type="line"/>
      <point x="27" y="697" type="line"/>
      <point x="27" y="0" type="line"/>
      <point x="259" y="0" type="line"/>
      <point x="305" y="0" type="line"/>
      <point x="538" y="0" type="line"/>
      <point x="538" y="697" type="line"/>
      <point x="305" y="697" type="line"/>
      <point x="305" y="418" type="line"/>
      <point x="305" y="278" type="line"/>
      <point x="305" y="232" type="line"/>
      <point x="259" y="232" type="line"/>
    </contour>
  </outline>
</glyph>
<glyph name="z" format="2">
  <advance width="565"/>
  <unicode hex="007A"/>
  <outline>
    <contour>
      <point x="410" y="232" type="line"/>
      <point x="363" y="232" type="line"/>
      <point x="538" y="697" type="line"/>
      <point x="27" y="697" type="line"/>
      <point x="27" y="464" type="line"/>
      <point x="201" y="464" type="line"/>
      <point x="27" y="0" type="line"/>
      <point x="538" y="0" type="line"/>
      <point x="538" y="232" type="line"/>
    </contour>
  </outline>
</glyph>
